<svg width="104" height="32" viewBox="0 0 104 32" fill="none" xmlns="http://www.w3.org/2000/svg">
<g clip-path="url(#clip0)">
<path d="M54.9472 8.04004C54.9472 9.19319 54.0182 10.1221 52.8651 10.1221C51.7119 10.1221 50.783 9.19319 50.783 8.04004C50.783 6.88689 51.6799 5.95796 52.8651 5.95796C54.0503 5.98999 54.9472 6.91892 54.9472 8.04004ZM46.3626 12.2362C46.3626 12.4284 46.3626 12.7487 46.3626 12.7487C46.3626 12.7487 45.3696 11.4675 43.2555 11.4675C39.764 11.4675 37.0412 14.1261 37.0412 17.8098C37.0412 21.4615 39.7319 24.1522 43.2555 24.1522C45.4016 24.1522 46.3626 22.8388 46.3626 22.8388V23.3834C46.3626 23.6396 46.5548 23.8318 46.811 23.8318H49.4056V11.7878C49.4056 11.7878 47.0352 11.7878 46.811 11.7878C46.5548 11.7878 46.3626 12.012 46.3626 12.2362ZM46.3626 19.956C45.8821 20.6607 44.9211 21.2693 43.768 21.2693C41.7179 21.2693 40.1483 19.988 40.1483 17.8098C40.1483 15.6316 41.7179 14.3503 43.768 14.3503C44.8891 14.3503 45.9141 14.991 46.3626 15.6637V19.956ZM51.3275 11.7878H54.4026V23.8318H51.3275V11.7878ZM97.2615 11.4675C95.1474 11.4675 94.1544 12.7487 94.1544 12.7487V5.98999H91.0793V23.8318C91.0793 23.8318 93.4497 23.8318 93.6739 23.8318C93.9301 23.8318 94.1223 23.6076 94.1223 23.3834V22.8388C94.1223 22.8388 95.1153 24.1522 97.2294 24.1522C100.721 24.1522 103.444 21.4615 103.444 17.8098C103.444 14.1582 100.721 11.4675 97.2615 11.4675ZM96.749 21.2372C95.5638 21.2372 94.6348 20.6286 94.1544 19.9239V15.6316C94.6348 14.991 95.6599 14.3183 96.749 14.3183C98.799 14.3183 100.369 15.5996 100.369 17.7778C100.369 19.956 98.799 21.2372 96.749 21.2372ZM89.4777 16.6887V23.8639H86.4026V17.041C86.4026 15.0551 85.762 14.2543 84.0322 14.2543C83.1033 14.2543 82.1424 14.7347 81.5337 15.4394V23.8318H78.4587V11.7878H80.8931C81.1494 11.7878 81.3416 12.012 81.3416 12.2362V12.7487C82.2384 11.8198 83.4236 11.4675 84.6088 11.4675C85.9542 11.4675 87.0753 11.8519 87.9722 12.6206C89.0613 13.5175 89.4777 14.6707 89.4777 16.6887ZM70.9952 11.4675C68.8811 11.4675 67.8881 12.7487 67.8881 12.7487V5.98999H64.813V23.8318C64.813 23.8318 67.1834 23.8318 67.4076 23.8318C67.6639 23.8318 67.8561 23.6076 67.8561 23.3834V22.8388C67.8561 22.8388 68.8491 24.1522 70.9632 24.1522C74.4547 24.1522 77.1774 21.4615 77.1774 17.8098C77.2094 14.1582 74.4867 11.4675 70.9952 11.4675ZM70.4827 21.2372C69.2975 21.2372 68.3686 20.6286 67.8881 19.9239V15.6316C68.3686 14.991 69.3936 14.3183 70.4827 14.3183C72.5327 14.3183 74.1023 15.5996 74.1023 17.7778C74.1023 19.956 72.5327 21.2372 70.4827 21.2372ZM62.1544 11.4675C63.0833 11.4675 63.5638 11.6276 63.5638 11.6276V14.4785C63.5638 14.4785 61.0012 13.6136 59.3996 15.4394V23.8639H56.3245V11.7878C56.3245 11.7878 58.6949 11.7878 58.9191 11.7878C59.1754 11.7878 59.3676 12.012 59.3676 12.2362V12.7487C59.9442 12.0761 61.1934 11.4675 62.1544 11.4675ZM30.2184 22.7427C30.0583 22.3584 29.8981 21.9419 29.7379 21.5896C29.4817 21.013 29.2254 20.4685 29.0012 19.956L28.9692 19.9239C26.759 15.1191 24.3886 10.2502 21.8901 5.44545L21.794 5.25325C21.5377 4.77277 21.2815 4.26026 21.0252 3.74775C20.7049 3.17117 20.3846 2.56256 19.8721 1.98599C18.847 0.704705 17.3736 0 15.804 0C14.2024 0 12.761 0.704705 11.7039 1.92192C11.2234 2.4985 10.8711 3.10711 10.5507 3.68368C10.2945 4.1962 10.0382 4.70871 9.78198 5.18919L9.68588 5.38138C7.21941 10.1862 4.81701 15.0551 2.6068 19.8599L2.57477 19.9239C2.35054 20.4364 2.09429 20.981 1.83803 21.5576C1.67787 21.9099 1.51771 22.2943 1.35755 22.7107C0.941134 23.8959 0.813006 25.017 0.973167 26.1702C1.32552 28.5726 2.92712 30.5906 5.13733 31.4875C5.97016 31.8398 6.83503 32 7.73193 32C7.98818 32 8.3085 31.968 8.56476 31.9359C9.62182 31.8078 10.7109 31.4555 11.768 30.8468C13.0813 30.1101 14.3305 29.0531 15.7399 27.5155C17.1493 29.0531 18.4306 30.1101 19.7119 30.8468C20.769 31.4555 21.8581 31.8078 22.9151 31.9359C23.1714 31.968 23.4917 32 23.7479 32C24.6448 32 25.5417 31.8398 26.3425 31.4875C28.5848 30.5906 30.1544 28.5405 30.5067 26.1702C30.763 25.049 30.6348 23.9279 30.2184 22.7427ZM15.772 24.4084C14.0422 22.2302 12.9211 20.1802 12.5367 18.4504C12.3766 17.7137 12.3445 17.0731 12.4406 16.4965C12.5047 15.984 12.6969 15.5355 12.9531 15.1512C13.5618 14.2863 14.5868 13.7417 15.772 13.7417C16.9572 13.7417 18.0142 14.2543 18.5908 15.1512C18.847 15.5355 19.0392 15.984 19.1033 16.4965C19.1994 17.0731 19.1674 17.7457 19.0072 18.4504C18.6228 20.1481 17.5017 22.1982 15.772 24.4084ZM28.5528 25.9139C28.3285 27.5796 27.2074 29.021 25.6378 29.6617C24.8691 29.982 24.0362 30.0781 23.2034 29.982C22.4026 29.8859 21.6018 29.6296 20.769 29.1491C19.6158 28.5085 18.4627 27.5155 17.1173 26.042C19.2314 23.4474 20.5127 21.0771 20.9932 18.963C21.2174 17.97 21.2494 17.0731 21.1534 16.2402C21.0252 15.4394 20.7369 14.7027 20.2885 14.0621C19.2955 12.6206 17.6298 11.7878 15.772 11.7878C13.9141 11.7878 12.2484 12.6527 11.2555 14.0621C10.807 14.7027 10.5187 15.4394 10.3906 16.2402C10.2625 17.0731 10.2945 18.002 10.5507 18.963C11.0312 21.0771 12.3445 23.4795 14.4266 26.0741C13.1133 27.5475 11.9281 28.5405 10.775 29.1812C9.94214 29.6617 9.14134 29.9179 8.34054 30.014C7.47567 30.1101 6.64284 29.982 5.9061 29.6937C4.33653 29.0531 3.21541 27.6116 2.99118 25.9459C2.89509 25.1451 2.95915 24.3443 3.27947 23.4474C3.37557 23.1271 3.53573 22.8068 3.69589 22.4224C3.92011 21.9099 4.17637 21.3654 4.43263 20.8208L4.46466 20.7568C6.67487 15.984 9.04524 11.1151 11.5117 6.37437L11.6078 6.18218C11.8641 5.7017 12.1203 5.18919 12.3766 4.70871C12.6328 4.1962 12.9211 3.71572 13.2735 3.2993C13.9461 2.53053 14.843 2.11411 15.836 2.11411C16.829 2.11411 17.7259 2.53053 18.3986 3.2993C18.7509 3.71572 19.0392 4.1962 19.2955 4.70871C19.5518 5.18919 19.808 5.7017 20.0643 6.18218L20.1604 6.37437C22.5948 11.1471 24.9652 16.016 27.1754 20.7888V20.8208C27.4316 21.3333 27.6559 21.9099 27.9121 22.4224C28.0723 22.8068 28.2324 23.1271 28.3285 23.4474C28.5848 24.2803 28.6809 25.0811 28.5528 25.9139Z" fill="#fff"/>
</g>
<defs>
<clipPath id="clip0">
<rect width="102.535" height="32" fill="white" transform="translate(0.909119)"/>
</clipPath>
</defs>
</svg>
