<svg width="33" height="32" viewBox="0 0 33 32" fill="none" xmlns="http://www.w3.org/2000/svg">
<path d="M21.3535 19.0234C20.4046 19.0234 19.6321 19.7958 19.6321 20.7448V24.2096C19.6321 25.1586 20.4046 25.931 21.3535 25.931C21.7066 25.931 22.0377 25.8207 22.3246 25.622L20.7135 24.011L21.9273 22.7972L23.0749 23.9448V20.7669C23.0749 19.7958 22.3025 19.0234 21.3535 19.0234ZM11.8639 6.04688H10.1204V12.9545H11.8639C12.8128 12.9545 13.5632 12.182 13.5852 11.2331V7.79032C13.5852 6.84136 12.8128 6.06894 11.8639 6.04688Z" fill="#fff"/>
<path d="M0.608704 0V32H32.6087V0H0.608704ZM15.3066 19.0234H12.7246V25.931H15.3287V27.6524H8.39905V25.931H10.9811V19.0234H8.39905V17.3021H15.3287V19.0234H15.3066ZM15.3066 11.2552C15.3066 13.1531 13.7618 14.6979 11.8639 14.72H8.39905V4.34759H11.8639C13.7618 4.34759 15.3066 5.89241 15.3066 7.79034V11.2552ZM17.9108 11.6966C17.9108 10.0193 19.257 8.6731 20.9342 8.65103H21.7949C22.5011 8.65103 23.097 8.07724 23.097 7.34897C23.097 6.64276 22.5232 6.0469 21.7949 6.0469H17.9108V4.32552H21.7949C23.4722 4.41379 24.7522 5.82621 24.6859 7.48138C24.6197 9.04828 23.3618 10.2841 21.7949 10.3724H20.9342C20.228 10.3724 19.6322 10.9462 19.6322 11.6745V12.9766H24.8184V14.6979H17.8887L17.9108 11.6966ZM24.8625 28.2041L23.5604 26.9021C22.0818 28.1159 19.897 27.9172 18.6832 26.4386C18.1756 25.8207 17.8887 25.0483 17.8887 24.2317V20.7669C17.9328 18.8469 19.5218 17.3462 21.4418 17.3903C23.2735 17.4345 24.7742 18.9131 24.8184 20.7669V24.2317C24.8184 24.651 24.7522 25.0703 24.5977 25.4676L26.0984 26.9683L24.8625 28.2041Z" fill="#fff"/>
</svg>
