<svg width="51" height="32" viewBox="0 0 51 32" fill="none" xmlns="http://www.w3.org/2000/svg">
<path d="M25.2609 21.3238V17.2403C29.5833 17.2403 32.9384 12.9538 31.2787 8.40458C30.6698 6.73296 29.3206 5.38373 27.637 4.77478C23.0878 3.12704 18.8013 6.47028 18.8013 10.7926H14.7297C14.7297 3.90315 21.3923 -1.4699 28.6161 0.786779C31.7683 1.77781 34.2877 4.28523 35.2667 7.43743C37.5234 14.6612 32.1504 21.3238 25.2609 21.3238Z" fill="#fff"/>
<path fill-rule="evenodd" clip-rule="evenodd" d="M21.2013 17.2641V13.1926H25.2729V17.2641H21.2013Z" fill="#fff"/>
<path fill-rule="evenodd" clip-rule="evenodd" d="M18.0849 17.2642H21.2013V20.3805H18.0849V17.2642Z" fill="#fff"/>
<path fill-rule="evenodd" clip-rule="evenodd" d="M18.0849 17.2642H15.47V14.6493H18.0849V17.2642Z" fill="#fff"/>
<path d="M7.85221 25.4551C7.32684 25.0849 6.6582 24.9058 5.89403 24.9058H4.22241V30.2192H5.90597C6.67014 30.2192 7.33878 30.0281 7.86415 29.6341C8.15071 29.4311 8.37757 29.1446 8.54474 28.7864C8.69996 28.4282 8.78354 27.9983 8.78354 27.5327C8.78354 27.067 8.69996 26.6491 8.54474 26.2909C8.37757 25.9327 8.15071 25.6461 7.85221 25.4551ZM5.2015 25.8013H5.72687C6.31193 25.8013 6.78954 25.9207 7.15968 26.1476C7.56565 26.3983 7.76863 26.864 7.76863 27.5327C7.76863 28.2252 7.56565 28.7147 7.15968 28.9774C6.81342 29.2043 6.33581 29.3237 5.73881 29.3237H5.2015V25.8013Z" fill="#fff"/>
<path d="M9.94175 24.8342C9.77459 24.8342 9.64325 24.8939 9.52385 25.0013C9.41639 25.1088 9.35669 25.2401 9.35669 25.4073C9.35669 25.5745 9.41639 25.7058 9.52385 25.8252C9.63131 25.9327 9.77459 25.9924 9.94175 25.9924C10.097 25.9924 10.2403 25.9327 10.3597 25.8252C10.4671 25.7177 10.5268 25.5745 10.5268 25.4073C10.5268 25.2401 10.4671 25.1088 10.3597 25.0013C10.2403 24.8939 10.097 24.8342 9.94175 24.8342Z" fill="#fff"/>
<path d="M10.4074 26.47H9.46411V30.2192H10.4074V26.47Z" fill="#fff"/>
<path d="M13.8342 26.7804C13.5476 26.5297 13.2372 26.3745 12.8909 26.3745C12.3655 26.3745 11.9357 26.5536 11.6014 26.9118C11.2671 27.258 11.088 27.7117 11.088 28.261C11.088 28.7864 11.2551 29.2401 11.5894 29.5983C11.9238 29.9445 12.3655 30.1237 12.879 30.1237C13.2372 30.1237 13.5596 30.0281 13.8103 29.8252V29.9087C13.8103 30.2192 13.7267 30.458 13.5596 30.6251C13.3924 30.7923 13.1655 30.8759 12.879 30.8759C12.4491 30.8759 12.1745 30.7087 11.8402 30.255L11.1954 30.8759L11.2074 30.8998C11.3506 31.0908 11.5536 31.2818 11.8402 31.4609C12.1148 31.64 12.473 31.7356 12.8909 31.7356C13.4521 31.7356 13.9058 31.5684 14.2401 31.2221C14.5745 30.8759 14.7416 30.4222 14.7416 29.861V26.458H13.8103V26.7804H13.8342ZM13.5834 29.0013C13.4163 29.1923 13.2014 29.2759 12.9387 29.2759C12.664 29.2759 12.4611 29.1804 12.2939 29.0013C12.1267 28.8102 12.0551 28.5714 12.0551 28.2729C12.0551 27.9625 12.1387 27.7237 12.2939 27.5326C12.4491 27.3416 12.676 27.258 12.9387 27.258C13.2133 27.258 13.4163 27.3535 13.5834 27.5326C13.7506 27.7237 13.8342 27.9744 13.8342 28.2729C13.8342 28.5714 13.7506 28.8102 13.5834 29.0013Z" fill="#fff"/>
<path d="M16.5088 26.47H15.5656V30.2192H16.5088V26.47Z" fill="#fff"/>
<path d="M16.0431 24.8342C15.876 24.8342 15.7446 24.8939 15.6252 25.0013C15.5178 25.1088 15.4581 25.2401 15.4581 25.4073C15.4581 25.5745 15.5178 25.7058 15.6252 25.8252C15.7327 25.9327 15.876 25.9924 16.0431 25.9924C16.1984 25.9924 16.3416 25.9327 16.461 25.8252C16.5685 25.7177 16.6282 25.5745 16.6282 25.4073C16.6282 25.2401 16.5685 25.1088 16.461 25.0013C16.3416 24.8939 16.2103 24.8342 16.0431 24.8342Z" fill="#fff"/>
<path d="M18.5744 25.4551H17.6431V26.47H17.1058V27.3297H17.6431V28.8819C17.6431 29.3714 17.7386 29.7177 17.9296 29.9207C18.1207 30.1237 18.4669 30.2192 18.9445 30.2192C19.0998 30.2192 19.255 30.2192 19.3983 30.2072H19.446V29.3476L19.1237 29.3595C18.8968 29.3595 18.7535 29.3237 18.6819 29.2401C18.6102 29.1565 18.5744 28.9894 18.5744 28.7386V27.3177H19.458V26.458H18.5744V25.4551Z" fill="#fff"/>
<path d="M24.8191 24.8939H23.8759V30.2192H24.8191V24.8939Z" fill="#fff"/>
<path d="M34.3474 28.8819C34.1802 29.0729 34.0011 29.2401 33.8698 29.3237C33.7384 29.4073 33.5713 29.455 33.3802 29.455C33.1056 29.455 32.8787 29.3595 32.6996 29.1446C32.5205 28.9416 32.425 28.667 32.425 28.3565C32.425 28.0341 32.5205 27.7715 32.6996 27.5685C32.8787 27.3655 33.1056 27.258 33.3802 27.258C33.6787 27.258 34.0011 27.4491 34.2757 27.7715L34.8966 27.1745C34.4906 26.6491 33.9772 26.3983 33.3563 26.3983C32.8429 26.3983 32.3892 26.5894 32.019 26.9595C31.6489 27.3297 31.4698 27.7953 31.4698 28.3565C31.4698 28.9177 31.6608 29.3834 32.019 29.7535C32.3892 30.1237 32.831 30.3147 33.3563 30.3147C34.0369 30.3147 34.5862 30.0162 34.9683 29.4789L34.3474 28.8819Z" fill="#fff"/>
<path d="M38.2279 26.9953C38.0965 26.8043 37.9174 26.661 37.6905 26.5535C37.4637 26.4461 37.201 26.3864 36.9144 26.3864C36.3891 26.3864 35.9592 26.5774 35.6368 26.9595C35.3264 27.3416 35.1592 27.8073 35.1592 28.3684C35.1592 28.9416 35.3383 29.4072 35.6727 29.7654C36.0189 30.1237 36.4727 30.3028 37.0338 30.3028C37.6667 30.3028 38.192 30.0401 38.5861 29.5386L38.6099 29.5147L37.989 28.9177C37.9293 28.9893 37.8458 29.061 37.7741 29.1326C37.6786 29.2162 37.595 29.2878 37.4995 29.3356C37.3562 29.4072 37.201 29.4431 37.0219 29.4431C36.7592 29.4431 36.5443 29.3714 36.3771 29.2162C36.2219 29.0729 36.1264 28.8819 36.1025 28.6431H38.598L38.6099 28.2968C38.6099 28.058 38.5741 27.8192 38.5144 27.6043C38.4547 27.3894 38.3592 27.1864 38.2279 26.9953ZM36.1622 27.8789C36.21 27.6998 36.2936 27.5446 36.413 27.4371C36.5443 27.3058 36.7115 27.2461 36.9025 27.2461C37.1294 27.2461 37.3085 27.3058 37.4279 27.4371C37.5353 27.5565 37.607 27.6998 37.6189 27.8789H36.1622Z" fill="#fff"/>
<path d="M41.8457 26.7565C41.5592 26.5177 41.1651 26.3864 40.6756 26.3864C40.3651 26.3864 40.0666 26.458 39.804 26.5894C39.5532 26.7088 39.3144 26.9237 39.1592 27.1864L39.1711 27.1983L39.7801 27.7714C40.0308 27.3774 40.3054 27.2341 40.6756 27.2341C40.8786 27.2341 41.0338 27.2819 41.1651 27.3894C41.2845 27.4968 41.3562 27.6282 41.3562 27.7953V27.9744C41.1174 27.9028 40.8905 27.867 40.6636 27.867C40.198 27.867 39.8159 27.9744 39.5293 28.1893C39.2428 28.4043 39.0995 28.7266 39.0995 29.1326C39.0995 29.4908 39.2189 29.7654 39.4696 29.9804C39.7204 30.1833 40.0189 30.2908 40.3771 30.2908C40.7353 30.2908 41.0696 30.1475 41.3801 29.8968V30.2072H42.3114V27.7953C42.2756 27.3535 42.1323 26.9953 41.8457 26.7565ZM40.1741 28.7864C40.2816 28.7147 40.4368 28.6789 40.6278 28.6789C40.8547 28.6789 41.0935 28.7267 41.3442 28.8102V29.1804C41.1413 29.3714 40.8666 29.4669 40.5323 29.4669C40.3651 29.4669 40.2457 29.4311 40.1502 29.3595C40.0666 29.2878 40.0189 29.2043 40.0189 29.0849C40.0189 28.9535 40.0666 28.858 40.1741 28.7864Z" fill="#fff"/>
<path d="M45.9054 26.8282C45.6427 26.5297 45.2726 26.3864 44.8069 26.3864C44.4367 26.3864 44.1263 26.4938 43.8994 26.7088V26.4819H42.98V30.2192H43.9233V28.1535C43.9233 27.867 43.995 27.6401 44.1263 27.4849C44.2576 27.3297 44.4367 27.2461 44.6875 27.2461C44.9024 27.2461 45.0576 27.3177 45.177 27.461C45.2964 27.6043 45.3561 27.8073 45.3561 28.0461V30.2192H46.2994V28.0461C46.2994 27.5326 46.1681 27.1147 45.9054 26.8282Z" fill="#fff"/>
<path d="M22.6938 26.7565C22.4072 26.5177 22.0132 26.3864 21.5237 26.3864C21.2132 26.3864 20.9147 26.458 20.652 26.5894C20.4013 26.7088 20.1625 26.9237 20.0073 27.1864L20.0192 27.1983L20.6282 27.7714C20.8789 27.3774 21.1535 27.2341 21.5237 27.2341C21.7266 27.2341 21.8819 27.2819 22.0132 27.3894C22.1326 27.4968 22.2042 27.6282 22.2042 27.7953V27.9744C21.9654 27.9028 21.7386 27.867 21.5117 27.867C21.0461 27.867 20.664 27.9744 20.3774 28.1893C20.0909 28.4043 19.9476 28.7266 19.9476 29.1326C19.9476 29.4908 20.067 29.7654 20.3177 29.9804C20.5685 30.1833 20.867 30.2908 21.2252 30.2908C21.5834 30.2908 21.9177 30.1475 22.2281 29.8968V30.2072H23.1595V27.7953C23.1236 27.3535 22.9804 26.9953 22.6938 26.7565ZM21.0222 28.7864C21.1296 28.7147 21.2849 28.6789 21.4759 28.6789C21.7028 28.6789 21.9416 28.7267 22.1923 28.8102V29.1804C21.9893 29.3714 21.7147 29.4669 21.3804 29.4669C21.2132 29.4669 21.0938 29.4311 20.9983 29.3595C20.9147 29.2878 20.867 29.2043 20.867 29.0849C20.867 28.9535 20.9147 28.858 21.0222 28.7864Z" fill="#fff"/>
<path d="M28.2459 30.3028C26.7295 30.3028 25.4997 29.0729 25.4997 27.5565C25.4997 26.0401 26.7295 24.8103 28.2459 24.8103C29.7623 24.8103 30.9922 26.0401 30.9922 27.5565C30.9922 29.0729 29.7623 30.3028 28.2459 30.3028ZM28.2459 25.7775C27.2668 25.7775 26.4668 26.5774 26.4668 27.5565C26.4668 28.5356 27.2668 29.3356 28.2459 29.3356C29.225 29.3356 30.025 28.5356 30.025 27.5565C30.025 26.5774 29.225 25.7775 28.2459 25.7775Z" fill="#fff"/>
</svg>
