<svg width="95" height="32" viewBox="0 0 95 32" fill="none" xmlns="http://www.w3.org/2000/svg">
<path d="M40.2609 16.4104C40.2609 20.8522 36.7861 24.1252 32.5217 24.1252C28.2574 24.1252 24.7826 20.8522 24.7826 16.4104C24.7826 11.9374 28.2574 8.69565 32.5217 8.69565C36.7861 8.69565 40.2609 11.9374 40.2609 16.4104ZM36.873 16.4104C36.873 13.6348 34.8591 11.7356 32.5217 11.7356C30.1843 11.7356 28.1704 13.6348 28.1704 16.4104C28.1704 19.1583 30.1843 21.0852 32.5217 21.0852C34.8591 21.0852 36.873 19.1548 36.873 16.4104Z" fill="#fff"/>
<path d="M56.9566 16.4104C56.9566 20.8522 53.4818 24.1252 49.2174 24.1252C44.9531 24.1252 41.4783 20.8522 41.4783 16.4104C41.4783 11.9409 44.9531 8.69565 49.2174 8.69565C53.4818 8.69565 56.9566 11.9374 56.9566 16.4104ZM53.5687 16.4104C53.5687 13.6348 51.5548 11.7356 49.2174 11.7356C46.88 11.7356 44.8661 13.6348 44.8661 16.4104C44.8661 19.1583 46.88 21.0852 49.2174 21.0852C51.5548 21.0852 53.5687 19.1548 53.5687 16.4104Z" fill="#fff"/>
<path d="M72.9566 9.16174V23.0122C72.9566 28.7096 69.5966 31.0365 65.6244 31.0365C61.8853 31.0365 59.6348 28.5357 58.7861 26.4904L61.7357 25.2626C62.2609 26.5183 63.5479 28 65.6209 28C68.1635 28 69.7392 26.4313 69.7392 23.4783V22.3687H69.6209C68.8627 23.3043 67.4018 24.1217 65.5583 24.1217C61.7009 24.1217 58.167 20.7617 58.167 16.4383C58.167 12.0835 61.7009 8.69565 65.5583 8.69565C67.3983 8.69565 68.8592 9.51304 69.6209 10.4209H69.7392V9.16521H72.9566V9.16174ZM69.9792 16.4383C69.9792 13.7217 68.167 11.7356 65.8609 11.7356C63.5235 11.7356 61.5653 13.7217 61.5653 16.4383C61.5653 19.127 63.5235 21.0852 65.8609 21.0852C68.167 21.0852 69.9792 19.127 69.9792 16.4383Z" fill="#fff"/>
<path d="M78.2609 1.04349V23.6522H74.9565V1.04349H78.2609Z" fill="#fff"/>
<path d="M91.1374 18.9496L93.7669 20.7026C92.9183 21.9583 90.873 24.1217 87.3391 24.1217C82.9565 24.1217 79.6835 20.7339 79.6835 16.407C79.6835 11.8191 82.9843 8.69217 86.96 8.69217C90.9635 8.69217 92.9217 11.8783 93.5617 13.6L93.913 14.4765L83.6 18.7478C84.3896 20.2956 85.6174 21.0852 87.3391 21.0852C89.0643 21.0852 90.2609 20.2365 91.1374 18.9496ZM83.0435 16.1739L89.9374 13.3113C89.5583 12.3478 88.4174 11.6765 87.0748 11.6765C85.353 11.6765 82.9565 13.1965 83.0435 16.1739Z" fill="#fff"/>
<path d="M12.2748 14.4035V11.1304H23.3044C23.4122 11.7009 23.4679 12.3757 23.4679 13.1061C23.4679 15.5617 22.7966 18.5983 20.6331 20.7617C18.5287 22.9531 15.84 24.1217 12.2783 24.1217C5.67655 24.1217 0.125244 18.7444 0.125244 12.1426C0.125244 5.54087 5.67655 0.163483 12.2783 0.163483C15.9305 0.163483 18.5322 1.59653 20.487 3.46435L18.1774 5.77392C16.7757 4.45914 14.8766 3.43653 12.2748 3.43653C7.45394 3.43653 3.68351 7.32174 3.68351 12.1426C3.68351 16.9635 7.45394 20.8487 12.2748 20.8487C15.4018 20.8487 17.1826 19.5931 18.3235 18.4522C19.2487 17.527 19.8574 16.2052 20.0974 14.4L12.2748 14.4035Z" fill="#fff"/>
</svg>
