<svg width="42" height="42" viewBox="0 0 42 42" fill="none" xmlns="http://www.w3.org/2000/svg">
<path fill-rule="evenodd" clip-rule="evenodd" d="M6.875 20.9546C3.89857 21.4332 1.625 24.0136 1.625 27.125C1.625 30.5768 4.42322 33.375 7.875 33.375C11.3268 33.375 14.125 30.5768 14.125 27.125C14.125 24.0136 11.8514 21.4332 8.875 20.9546V1.625H6.875V20.9546ZM7.875 22.875C5.52779 22.875 3.625 24.7778 3.625 27.125C3.625 29.4722 5.52779 31.375 7.875 31.375C10.2222 31.375 12.125 29.4722 12.125 27.125C12.125 24.7778 10.2222 22.875 7.875 22.875ZM8.875 35.75V40.375H6.875V35.75H8.875ZM22 1.625V6.25H20V1.625H22ZM22 40.375V21.0454C24.9764 20.5668 27.25 17.9864 27.25 14.875C27.25 11.4232 24.4518 8.625 21 8.625C17.5482 8.625 14.75 11.4232 14.75 14.875C14.75 17.9864 17.0236 20.5668 20 21.0454V40.375H22ZM25.25 14.875C25.25 17.2222 23.3472 19.125 21 19.125C18.6528 19.125 16.75 17.2222 16.75 14.875C16.75 12.5278 18.6528 10.625 21 10.625C23.3472 10.625 25.25 12.5278 25.25 14.875ZM35.125 40.375V35.75H33.125V40.375H35.125ZM33.125 20.9546C30.1486 21.4332 27.875 24.0136 27.875 27.125C27.875 30.5768 30.6732 33.375 34.125 33.375C37.5768 33.375 40.375 30.5768 40.375 27.125C40.375 24.0136 38.1014 21.4332 35.125 20.9546V1.625H33.125V20.9546ZM34.125 22.875C31.7778 22.875 29.875 24.7778 29.875 27.125C29.875 29.4722 31.7778 31.375 34.125 31.375C36.4722 31.375 38.375 29.4722 38.375 27.125C38.375 24.7778 36.4722 22.875 34.125 22.875Z" fill="url(#paint0_linear)"/>
<defs>
<linearGradient id="paint0_linear" x1="21" y1="1.625" x2="21" y2="40.375" gradientUnits="userSpaceOnUse">
<stop stop-color="#814BF6"/>
<stop offset="1" stop-color="#AF2CBB"/>
</linearGradient>
</defs>
</svg>
