<svg width="64" height="64" viewBox="0 0 64 64" fill="none" xmlns="http://www.w3.org/2000/svg">
<path d="M17.3334 22.6668C17.3334 23.3741 17.6143 24.0523 18.1144 24.5524C18.6145 25.0525 19.2928 25.3335 20 25.3335H22.6667L29.528 32.1948C29.6206 32.2877 29.7386 32.3512 29.8671 32.3773C29.9955 32.4035 30.1289 32.3912 30.2504 32.342C30.372 32.2927 30.4763 32.2087 30.5503 32.1005C30.6244 31.9923 30.6649 31.8646 30.6667 31.7335V25.3335H49.3334C50.0406 25.3335 50.7189 25.0525 51.219 24.5524C51.7191 24.0523 52 23.3741 52 22.6668V4.00016C52 3.29292 51.7191 2.61464 51.219 2.11454C50.7189 1.61445 50.0406 1.3335 49.3334 1.3335H20C19.2928 1.3335 18.6145 1.61445 18.1144 2.11454C17.6143 2.61464 17.3334 3.29292 17.3334 4.00016V22.6668Z" stroke="#00BCFF" stroke-width="2" stroke-linecap="round" stroke-linejoin="round"/>
<path d="M25.3334 9.3335H43.9174" stroke="#00BCFF" stroke-width="2" stroke-linecap="round" stroke-linejoin="round"/>
<path d="M25.3334 17.3335H43.9174" stroke="#00BCFF" stroke-width="2" stroke-linecap="round" stroke-linejoin="round"/>
<path d="M13.3334 42.667C16.6471 42.667 19.3334 39.9807 19.3334 36.667C19.3334 33.3533 16.6471 30.667 13.3334 30.667C10.0197 30.667 7.33337 33.3533 7.33337 36.667C7.33337 39.9807 10.0197 42.667 13.3334 42.667Z" stroke="#00BCFF" stroke-width="2" stroke-linecap="round" stroke-linejoin="round"/>
<path d="M21.784 48.7203C20.2186 47.2441 18.2949 46.2023 16.2031 45.6981C14.1114 45.1938 11.9242 45.2446 9.85814 45.8454C7.79205 46.4461 5.91869 47.5761 4.42349 49.1234C2.92829 50.6706 1.86311 52.5816 1.33337 54.667H17.3334" stroke="#00BCFF" stroke-width="2" stroke-linecap="round" stroke-linejoin="round"/>
<path d="M50.6667 42.667C53.9805 42.667 56.6667 39.9807 56.6667 36.667C56.6667 33.3533 53.9805 30.667 50.6667 30.667C47.353 30.667 44.6667 33.3533 44.6667 36.667C44.6667 39.9807 47.353 42.667 50.6667 42.667Z" stroke="#00BCFF" stroke-width="2" stroke-linecap="round" stroke-linejoin="round"/>
<path d="M42.2162 48.7203C43.7816 47.2441 45.7054 46.2023 47.7971 45.6981C49.8888 45.1938 52.076 45.2446 54.1421 45.8454C56.2082 46.4461 58.0815 47.5761 59.5767 49.1234C61.0719 50.6706 62.1371 52.5816 62.6669 54.667H46.6669" stroke="#00BCFF" stroke-width="2" stroke-linecap="round" stroke-linejoin="round"/>
<path d="M32 50.667C35.3137 50.667 38 47.9807 38 44.667C38 41.3533 35.3137 38.667 32 38.667C28.6863 38.667 26 41.3533 26 44.667C26 47.9807 28.6863 50.667 32 50.667Z" stroke="#00BCFF" stroke-width="2" stroke-linecap="round" stroke-linejoin="round"/>
<path d="M44 62.6668C43.32 60.0003 41.7713 57.6362 39.5983 55.9478C37.4253 54.2593 34.7519 53.3428 32 53.3428C29.2481 53.3428 26.5747 54.2593 24.4017 55.9478C22.2287 57.6362 20.68 60.0003 20 62.6668H44Z" stroke="#00BCFF" stroke-width="2" stroke-linecap="round" stroke-linejoin="round"/>
</svg>
