<svg width="42" height="42" viewBox="0 0 42 42" fill="none" xmlns="http://www.w3.org/2000/svg">
<path fill-rule="evenodd" clip-rule="evenodd" d="M26.4988 3.593C27.3316 4.54028 28.0696 5.6796 28.7003 6.94098C29.222 7.98427 29.6844 9.13562 30.0788 10.375H35.8399C33.566 7.20469 30.3014 4.79307 26.4988 3.593ZM37.0873 12.375H30.6372C31.2038 14.7119 31.5449 17.2901 31.6126 20H39.2231C39.0747 17.2528 38.3188 14.6671 37.0873 12.375ZM39.2231 22H31.6126C31.5449 24.7099 31.2038 27.2881 30.6372 29.625H37.0873C38.3188 27.3329 39.0747 24.7472 39.2231 22ZM35.8399 31.625H30.0788C29.6844 32.8644 29.222 34.0157 28.7003 35.059C28.0696 36.3204 27.3316 37.4597 26.4988 38.407C30.3014 37.2069 33.566 34.7953 35.8399 31.625ZM15.5012 38.407C14.6684 37.4597 13.9304 36.3204 13.2997 35.059C12.778 34.0157 12.3156 32.8644 11.9212 31.625H6.1601C8.434 34.7953 11.6986 37.2069 15.5012 38.407ZM4.91268 29.625H11.3628C10.7962 27.2881 10.4551 24.7099 10.3874 22H2.77693C2.92528 24.7472 3.6812 27.3329 4.91268 29.625ZM2.77693 20H10.3874C10.4551 17.2901 10.7962 14.7119 11.3628 12.375H4.91268C3.6812 14.6671 2.92528 17.2528 2.77693 20ZM6.1601 10.375H11.9212C12.3156 9.13562 12.778 7.98427 13.2997 6.94098C13.9304 5.6796 14.6684 4.54028 15.5012 3.593C11.6986 4.79307 8.434 7.20469 6.1601 10.375ZM21 41.25C32.1838 41.25 41.25 32.1838 41.25 21C41.25 9.81623 32.1838 0.75 21 0.75C9.81623 0.75 0.75 9.81623 0.75 21C0.75 32.1838 9.81623 41.25 21 41.25ZM15.0885 7.83541C14.7002 8.61213 14.3449 9.46206 14.0286 10.375H20V2.88118C18.249 3.3397 16.5068 4.99882 15.0885 7.83541ZM26.9115 7.83541C27.2998 8.61213 27.6551 9.46206 27.9714 10.375H22V2.88118C23.751 3.3397 25.4932 4.99882 26.9115 7.83541ZM22 12.375H28.575C29.1706 14.6629 29.5396 17.2457 29.6119 20H22V12.375ZM22 22H29.6119C29.5396 24.7543 29.1706 27.3371 28.575 29.625H22V22ZM22 31.625H27.9714C27.6551 32.5379 27.2998 33.3879 26.9115 34.1646C25.4932 37.0012 23.751 38.6603 22 39.1188V31.625ZM20 31.625V39.1188C18.249 38.6603 16.5068 37.0012 15.0885 34.1646C14.7002 33.3879 14.3449 32.5379 14.0286 31.625H20ZM20 29.625H13.425C12.8294 27.3371 12.4604 24.7543 12.3881 22H20V29.625ZM20 20H12.3881C12.4604 17.2457 12.8294 14.6629 13.425 12.375H20V20Z" fill="url(#paint0_linear)"/>
<defs>
<linearGradient id="paint0_linear" x1="21" y1="0.75" x2="21" y2="41.25" gradientUnits="userSpaceOnUse">
<stop stop-color="#814BF6"/>
<stop offset="1" stop-color="#AF2CBB"/>
</linearGradient>
</defs>
</svg>
