<svg width="42" height="42" viewBox="0 0 42 42" fill="none" xmlns="http://www.w3.org/2000/svg">
<path fill-rule="evenodd" clip-rule="evenodd" d="M2.96875 21C2.96875 11.0416 11.0416 2.96875 21 2.96875C30.9584 2.96875 39.0312 11.0416 39.0312 21C39.0312 30.9584 30.9584 39.0312 21 39.0312C11.0416 39.0312 2.96875 30.9584 2.96875 21ZM21 0.96875C9.93705 0.96875 0.96875 9.93705 0.96875 21C0.96875 32.063 9.93705 41.0312 21 41.0312C32.063 41.0312 41.0312 32.063 41.0312 21C41.0312 9.93705 32.063 0.96875 21 0.96875ZM19.5252 21.5365L15.3116 13.9519L13.5632 14.9232L17.7775 22.509C16.9679 23.207 16.3873 24.1634 16.1638 25.25H8.2528C7.63416 23.3952 7.4269 21.4249 7.64895 19.4768C7.89657 17.3043 8.67062 15.225 9.90393 13.4194C11.1372 11.6138 12.7925 10.1364 14.7262 9.11554C16.6598 8.09464 18.8134 7.56104 21 7.56104C23.1866 7.56104 25.3402 8.09464 27.2738 9.11554C29.2075 10.1364 30.8628 11.6138 32.0961 13.4194C33.3294 15.225 34.1034 17.3043 34.3511 19.4768C34.5731 21.4249 34.3658 23.3952 33.7472 25.25H25.8362C25.3739 23.0025 23.3843 21.3125 21 21.3125C20.4863 21.3125 19.9909 21.391 19.5252 21.5365ZM25.8362 27.25H35.1316L35.38 26.6138C36.2938 24.2738 36.6227 21.7462 36.3382 19.2503C36.0537 16.7544 35.1645 14.3657 33.7476 12.2913C32.3307 10.217 30.429 8.51975 28.2076 7.34691C25.9862 6.17406 23.5121 5.56104 21 5.56104C18.488 5.56104 16.0139 6.17406 13.7924 7.34691C11.571 8.51975 9.66929 10.217 8.25242 12.2913C6.83555 14.3657 5.94629 16.7544 5.66181 19.2503C5.37733 21.7462 5.70624 24.2738 6.61997 26.6138L6.86842 27.25H16.1638C16.6261 29.4975 18.6157 31.1875 21 31.1875C23.3843 31.1875 25.3739 29.4975 25.8362 27.25ZM18.0625 26.2548C18.0651 27.8749 19.3793 29.1875 21 29.1875C22.6223 29.1875 23.9375 27.8723 23.9375 26.25C23.9375 24.6277 22.6223 23.3125 21 23.3125C19.3793 23.3125 18.0651 24.6251 18.0625 26.2452V26.2548Z" fill="url(#paint0_linear)"/>
<defs>
<linearGradient id="paint0_linear" x1="21" y1="0.96875" x2="21" y2="41.0312" gradientUnits="userSpaceOnUse">
<stop stop-color="#814BF6"/>
<stop offset="1" stop-color="#AF2CBB"/>
</linearGradient>
</defs>
</svg>
