<svg width="96" height="32" viewBox="0 0 96 32" fill="none" xmlns="http://www.w3.org/2000/svg">
<path d="M59.7387 11.6009C59.7387 11.6009 59.6875 11.6009 59.7387 11.6009C59.2272 10.3732 58.1018 9.60596 56.823 9.60596C55.5442 9.60596 54.3677 10.3732 53.9073 11.6009C53.9073 11.6009 53.9073 11.6009 53.9073 11.652L50.6336 20.706C50.4801 20.8595 50.4801 21.1152 50.5313 21.3198C50.6336 21.8825 51.1451 22.2917 51.7078 22.2917H56.2092C56.8742 22.2917 57.0788 21.4733 56.5161 21.1152L53.5493 19.4783L56.1069 12.4193C56.2092 12.1636 56.4649 12.0101 56.7719 12.0101C57.0788 12.0101 57.3345 12.1636 57.4368 12.4705L60.6594 21.4733C60.8129 21.9337 61.2733 22.2917 61.7848 22.2917C61.9382 22.2917 62.0405 22.2917 62.194 22.2406C62.8078 22.036 63.1659 21.3198 62.9101 20.706L59.7387 11.6009Z" fill="#fff"/>
<path d="M49.0478 10.0663H39.9939C39.3289 10.0663 38.7662 10.5779 38.7662 11.294C38.7662 12.0101 39.3289 12.5217 39.9939 12.5217H43.3188V21.0641C43.3188 21.7291 43.8303 22.2917 44.5464 22.2917C45.2114 22.2917 45.7741 21.7802 45.7741 21.0641V12.4705H49.099C49.764 12.4705 50.3267 11.959 50.3267 11.2428C50.3267 10.5267 49.7128 10.0663 49.0478 10.0663Z" fill="#fff"/>
<path d="M77.0793 9.60596C76.4143 9.60596 75.8517 10.1686 75.8517 10.8336V19.7853H75.3401C75.2378 19.7853 75.1355 19.7341 75.1355 19.683L71.0433 11.294C70.6341 10.3732 69.6622 9.86172 68.6392 9.86172H67.1046C66.4396 9.86172 65.8258 10.3221 65.8258 10.9871V21.1152C65.8258 21.7802 66.3885 22.3429 67.0535 22.3429C67.7184 22.3429 68.2811 21.7802 68.2811 21.1152V12.2659H68.6392C68.7415 12.2659 68.8438 12.317 68.8438 12.3682L72.936 20.8595C73.3963 21.7802 74.3171 22.394 75.3401 22.394H77.0282C77.6931 22.394 78.307 21.7291 78.307 21.0641V10.8336C78.307 10.1686 77.7443 9.60596 77.0793 9.60596Z" fill="#fff"/>
<path d="M8.02368 20.8595C7.40985 20.5014 6.64257 20.0922 6.64257 20.0922V12.2659C6.64257 12.2659 7.20525 11.959 7.71677 11.652C8.22829 11.3451 8.27944 10.5267 7.76792 10.1175C7.61446 10.0152 7.46101 9.96402 7.30755 9.96402H3.57343C3.41997 9.96402 3.26652 10.0152 3.11306 10.1175C2.60154 10.5267 2.65269 11.3963 3.16421 11.652C3.67573 11.9078 4.23841 12.2659 4.23841 12.2659V20.041H3.36882C2.75499 20.041 2.24347 20.6037 2.24347 21.2175C2.24347 21.8314 2.75499 22.394 3.36882 22.394C3.36882 22.394 7.76792 22.394 7.81907 22.394C8.53521 22.394 8.73982 21.2687 8.02368 20.8595Z" fill="#fff"/>
<path d="M90.2766 11.6009C89.7651 10.3732 88.6397 9.60596 87.3609 9.60596C86.0821 9.60596 84.9056 10.3732 84.4452 11.6009C84.4452 11.6009 84.4452 11.6009 84.4452 11.652L81.1715 20.6549C81.0692 20.8595 81.0692 21.1152 81.1203 21.3198C81.2226 21.8825 81.7342 22.2917 82.2968 22.2917H86.7982C87.4632 22.2917 87.6678 21.4733 87.1052 21.1152L84.1383 19.4783L86.6959 12.4193C86.7982 12.1636 87.054 12.0101 87.3609 12.0101C87.6678 12.0101 87.9236 12.1636 88.0259 12.4705L91.2485 21.4733C91.402 21.9337 91.8623 22.2917 92.3738 22.2917C92.5273 22.2917 92.6296 22.2917 92.7831 22.2406C93.3969 22.036 93.755 21.3198 93.4992 20.706L90.2766 11.6009Z" fill="#fff"/>
<path d="M22.6532 9.86172C21.9882 9.86172 21.4256 10.4244 21.4256 11.0894V19.8364H20.914C20.8117 19.8364 20.7094 19.7853 20.7094 19.7341L16.6173 11.3451C16.1569 10.3732 15.2361 9.86172 14.2131 9.86172H12.6785C12.0135 9.86172 11.3997 10.3221 11.3997 10.9871V21.1152C11.3997 21.7802 11.9624 22.3429 12.6274 22.3429C13.2924 22.3429 13.855 21.7802 13.855 21.1152V12.2659H14.2131C14.3154 12.2659 14.4177 12.317 14.4177 12.3682L18.5099 20.8595C18.9703 21.7802 19.891 22.394 20.914 22.394H22.6021C23.2671 22.394 23.8297 21.7291 23.8297 21.0641V11.0894C23.8297 10.4244 23.3182 9.86172 22.6532 9.86172Z" fill="#fff"/>
<path d="M34.9298 16.1023L30.5818 14.1074C30.0192 13.8516 29.4053 13.4424 29.4053 12.8797C29.4053 12.4705 29.7634 12.1124 30.1726 12.1124H34.0091C34.2648 12.1124 34.5717 12.2147 34.674 12.5728C34.8786 13.0843 35.2879 13.3401 35.7482 13.3401C35.8505 13.3401 36.004 13.3401 36.1063 13.2889C36.4132 13.1866 36.6178 12.982 36.7713 12.7263C36.9247 12.4705 36.9247 12.1636 36.8224 11.8567C36.3621 10.4756 35.3902 9.81058 33.9579 9.81058H30.1215C28.4335 9.81058 27.1035 11.1917 27.1035 12.8286C27.1035 14.2608 28.0242 15.3862 29.6611 16.1023L34.0091 18.0973C34.2648 18.1996 35.1856 18.6088 35.1856 19.2738C35.1856 19.683 34.8275 20.041 34.4183 20.041H29.7123C29.4053 20.041 29.0473 19.8364 28.945 19.5295C28.7915 19.0691 28.3311 18.7622 27.8708 18.7622C27.7685 18.7622 27.615 18.7622 27.5127 18.8134C27.2058 18.9157 27.0012 19.1203 26.8477 19.3761C26.6943 19.6318 26.6943 19.9387 26.7966 20.2456C27.1546 21.5756 28.2288 22.3429 29.7634 22.3429H34.4694C36.1574 22.3429 37.4874 20.9618 37.4874 19.3249C37.4874 17.9438 36.5667 16.7673 34.9298 16.1023Z" fill="#fff"/>
</svg>
