<svg width="195" height="42" viewBox="0 0 195 42" fill="none" xmlns="http://www.w3.org/2000/svg">
<path fill-rule="evenodd" clip-rule="evenodd" d="M21 4.13115C11.6836 4.13115 4.13115 11.6836 4.13115 21C4.13115 30.3164 11.6836 37.8689 21 37.8689C30.3164 37.8689 37.8689 30.3164 37.8689 21C37.8689 11.6836 30.3164 4.13115 21 4.13115ZM0 21C0 9.40202 9.40202 0 21 0C32.598 0 42 9.40202 42 21C42 32.598 32.598 42 21 42C9.40202 42 0 32.598 0 21Z" fill="#814BF6"/>
<path fill-rule="evenodd" clip-rule="evenodd" d="M21 13.5984C16.9121 13.5984 13.5983 16.9122 13.5983 21C13.5983 25.0878 16.9121 28.4017 21 28.4017C25.0878 28.4017 28.4016 25.0878 28.4016 21C28.4016 16.9122 25.0878 13.5984 21 13.5984ZM9.46716 21C9.46716 14.6306 14.6306 9.46722 21 9.46722C27.3693 9.46722 32.5327 14.6306 32.5327 21C32.5327 27.3694 27.3693 32.5328 21 32.5328C14.6306 32.5328 9.46716 27.3694 9.46716 21Z" fill="#00BCFF"/>
<path d="M55.539 27.9069C59.2281 27.9069 61.5462 25.7428 61.7266 22.5599H58.1006C57.8751 24.0387 56.901 24.8682 55.5841 24.8682C53.7891 24.8682 52.6256 23.3624 52.6256 20.7115C52.6256 18.0966 53.7981 16.5998 55.5841 16.5998C56.9912 16.5998 57.8932 17.5286 58.1006 18.9081H61.7266C61.5642 15.7072 59.1379 13.6063 55.5209 13.6063C51.3177 13.6063 48.72 16.5187 48.72 20.7656C48.72 24.9764 51.2726 27.9069 55.539 27.9069Z" fill="white"/>
<path d="M70.4465 27.9069C74.6498 27.9069 77.2656 25.0305 77.2656 20.7656C77.2656 16.4736 74.6498 13.6063 70.4465 13.6063C66.2433 13.6063 63.6275 16.4736 63.6275 20.7656C63.6275 25.0305 66.2433 27.9069 70.4465 27.9069ZM70.4646 24.9313C68.5253 24.9313 67.5331 23.155 67.5331 20.7385C67.5331 18.322 68.5253 16.5367 70.4646 16.5367C72.3678 16.5367 73.36 18.322 73.36 20.7385C73.36 23.155 72.3678 24.9313 70.4646 24.9313Z" fill="white"/>
<path d="M84.8693 27.8618C87.1062 27.8618 88.2698 26.5724 88.802 25.4182H88.9643V27.6364H92.7527V9.17001H88.9192V16.1129H88.802C88.2878 14.9858 87.1784 13.6063 84.8603 13.6063C81.8206 13.6063 79.2499 15.9687 79.2499 20.7295C79.2499 25.3641 81.7123 27.8618 84.8693 27.8618ZM86.087 24.8051C84.2018 24.8051 83.1736 23.128 83.1736 20.7115C83.1736 18.313 84.1838 16.6629 86.087 16.6629C87.9541 16.6629 89.0004 18.2409 89.0004 20.7115C89.0004 23.1821 87.936 24.8051 86.087 24.8051Z" fill="white"/>
<path d="M102.226 27.9069C105.653 27.9069 107.962 26.2388 108.504 23.669L104.95 23.4345C104.562 24.4895 103.57 25.0395 102.289 25.0395C100.368 25.0395 99.15 23.7682 99.15 21.7033V21.6943H108.585V20.6393C108.585 15.9326 105.734 13.6063 102.072 13.6063C97.9954 13.6063 95.3526 16.5006 95.3526 20.7746C95.3526 25.1658 97.9594 27.9069 102.226 27.9069ZM99.15 19.3139C99.2312 17.7359 100.431 16.4736 102.136 16.4736C103.804 16.4736 104.959 17.6638 104.968 19.3139H99.15Z" fill="white"/>
<path d="M122.62 17.7359C122.277 15.1842 120.22 13.6063 116.721 13.6063C113.176 13.6063 110.84 15.2473 110.849 17.9163C110.84 19.9901 112.148 21.3336 114.854 21.8746L117.253 22.3525C118.461 22.596 119.012 23.0378 119.03 23.7321C119.012 24.5526 118.119 25.1387 116.775 25.1387C115.404 25.1387 114.493 24.5526 114.258 23.4255L110.479 23.6239C110.84 26.2748 113.095 27.9069 116.766 27.9069C120.356 27.9069 122.926 26.0765 122.935 23.3444C122.926 21.3427 121.618 20.1434 118.931 19.5934L116.423 19.0885C115.133 18.8089 114.655 18.3671 114.664 17.6999C114.655 16.8703 115.593 16.3293 116.784 16.3293C118.119 16.3293 118.912 17.0597 119.102 17.9523L122.62 17.7359Z" fill="white"/>
<path d="M125.355 32.83H129.197V25.4182H129.315C129.847 26.5724 131.01 27.8618 133.247 27.8618C136.404 27.8618 138.867 25.3641 138.867 20.7295C138.867 15.9687 136.296 13.6063 133.256 13.6063C130.938 13.6063 129.829 14.9858 129.315 16.1129H129.143V13.7866H125.355V32.83ZM129.116 20.7115C129.116 18.2409 130.163 16.6629 132.03 16.6629C133.933 16.6629 134.943 18.313 134.943 20.7115C134.943 23.128 133.915 24.8051 132.03 24.8051C130.181 24.8051 129.116 23.1821 129.116 20.7115Z" fill="white"/>
<path d="M145.271 19.6295C145.28 17.8441 146.371 16.7982 147.941 16.7982C149.501 16.7982 150.421 17.7991 150.412 19.5032V27.6364H154.255V18.818C154.264 15.5719 152.351 13.6063 149.465 13.6063C147.363 13.6063 145.956 14.5981 145.325 16.2301H145.163V9.17001H141.428V27.6364H145.271V19.6295Z" fill="white"/>
<path d="M163.592 27.9069C167.02 27.9069 169.329 26.2388 169.87 23.669L166.316 23.4345C165.928 24.4895 164.936 25.0395 163.655 25.0395C161.734 25.0395 160.517 23.7682 160.517 21.7033V21.6943H169.951V20.6393C169.951 15.9326 167.101 13.6063 163.439 13.6063C159.362 13.6063 156.719 16.5006 156.719 20.7746C156.719 25.1658 159.326 27.9069 163.592 27.9069ZM160.517 19.3139C160.598 17.7359 161.797 16.4736 163.502 16.4736C165.171 16.4736 166.325 17.6638 166.334 19.3139H160.517Z" fill="white"/>
<path d="M172.459 27.6364H176.301V19.8008C176.301 18.0966 177.546 16.9244 179.242 16.9244C179.774 16.9244 180.505 17.0146 180.865 17.1318V13.7235C180.523 13.6423 180.045 13.5882 179.657 13.5882C178.105 13.5882 176.833 14.4899 176.328 16.2031H176.184V13.7866H172.459V27.6364Z" fill="white"/>
<path d="M188.521 27.9069C191.949 27.9069 194.258 26.2388 194.799 23.669L191.245 23.4345C190.857 24.4895 189.865 25.0395 188.584 25.0395C186.663 25.0395 185.445 23.7682 185.445 21.7033V21.6943H194.88V20.6393C194.88 15.9326 192.03 13.6063 188.368 13.6063C184.291 13.6063 181.648 16.5006 181.648 20.7746C181.648 25.1658 184.255 27.9069 188.521 27.9069ZM185.445 19.3139C185.526 17.7359 186.726 16.4736 188.431 16.4736C190.099 16.4736 191.254 17.6638 191.263 19.3139H185.445Z" fill="white"/>
</svg>
