<svg width="400" height="341" viewBox="0 0 400 341" fill="none" xmlns="http://www.w3.org/2000/svg">
<g opacity="0.34">
<g opacity="0.4">
<g filter="url(#filter0_f)">
<ellipse cx="172.679" cy="165.839" rx="55.1716" ry="40.2186" transform="rotate(32.456 172.679 165.839)" fill="#001AFF"/>
</g>
<g filter="url(#filter1_f)">
<ellipse cx="216.614" cy="191.413" rx="55.1716" ry="40.2186" transform="rotate(32.456 216.614 191.413)" fill="#AF2CBB"/>
</g>
</g>
<g opacity="0.4">
<g filter="url(#filter2_f)">
<ellipse rx="55.1716" ry="40.2186" transform="matrix(-0.866025 0.5 0.5 0.866025 217.141 166.793)" fill="#001AFF"/>
</g>
<g filter="url(#filter3_f)">
<ellipse rx="55.1716" ry="40.2186" transform="matrix(-0.866025 0.5 0.5 0.866025 172.151 190.46)" fill="#AF2CBB"/>
</g>
</g>
<g filter="url(#filter4_f)">
<ellipse cx="194.426" cy="176.393" rx="76.7213" ry="27.8688" transform="rotate(-90 194.426 176.393)" fill="#814BF6"/>
</g>
</g>
<g filter="url(#filter5_f)">
<circle cx="196.065" cy="179.672" r="33.4426" stroke="#814BF6" stroke-width="8"/>
</g>
<circle cx="196.065" cy="179.672" r="33.4426" stroke="#814BF6" stroke-width="8"/>
<g filter="url(#filter6_f)">
<ellipse cx="196.065" cy="179.672" rx="20.6557" ry="20.6557" stroke="#00BCFF" stroke-width="8"/>
</g>
<ellipse cx="196.065" cy="179.672" rx="20.6557" ry="20.6557" stroke="#00BCFF" stroke-width="8"/>
<ellipse cx="228.852" cy="40.0001" rx="38.0328" ry="38.0328" fill="#814BF6" fill-opacity="0.05"/>
<path d="M266.385 40.0001C266.385 60.7289 249.581 77.5329 228.852 77.5329C208.124 77.5329 191.32 60.7289 191.32 40.0001C191.32 19.2713 208.124 2.46729 228.852 2.46729C249.581 2.46729 266.385 19.2713 266.385 40.0001Z" stroke="#814BF6" stroke-opacity="0.1"/>
<path d="M225.287 27.5206H219.344V43.3056C219.344 47.2113 218.005 48.3019 215.674 48.3019C214.582 48.3019 213.598 48.1146 212.833 47.8515L212.213 52.4724C213.305 52.8484 214.981 53.0738 216.292 53.0738C221.644 53.0738 225.287 50.5578 225.287 43.3443V27.5206ZM238.247 26.9263C232.494 26.9263 228.853 30.1946 228.853 34.5146C228.853 38.2349 231.657 40.5641 235.734 42.0665C238.683 43.1182 239.849 44.0579 239.849 45.5978C239.849 47.2882 238.501 48.3779 235.953 48.3779C233.586 48.3779 231.437 47.5875 229.981 46.799V46.7974L228.853 51.4936C230.237 52.2838 232.822 53.0725 235.625 53.0725C242.361 53.0723 245.492 49.4659 245.492 45.2209C245.492 41.6145 243.489 39.2857 239.157 37.632C235.953 36.355 234.606 35.6416 234.606 34.0261C234.606 32.7485 235.771 31.5845 238.175 31.5845C240.54 31.5845 242.167 32.3799 243.115 32.869L244.535 28.1149C243.05 27.4626 241.049 26.9263 238.247 26.9263Z" fill="#FFF44F"/>
<circle cx="74.4262" cy="106.557" r="35.7377" fill="#814BF6" fill-opacity="0.05"/>
<circle cx="74.4262" cy="106.557" r="35.2377" stroke="#814BF6" stroke-opacity="0.1"/>
<g clip-path="url(#clip0)">
<path d="M63.0337 86.5574H64.86V88.3678H66.5434V86.5574H68.3698V92.0364H66.5434V90.21H64.8759V92.0364H63.0337V86.5574ZM70.7837 88.3837H69.1718V86.5574H74.2299V88.3837H72.61V92.0364H70.7837V88.3837ZM75.0319 86.5574H76.9456L78.1208 88.4869L79.296 86.5574H81.2097V92.0364H79.3833V89.3207L78.1049 91.29L76.8265 89.3207V92.0364H75.0319V86.5574ZM82.1149 86.5574H83.9412V90.2259H86.5299V92.0364H82.1149" fill="white"/>
<path d="M62.9702 123.958L60.3499 94.5457H89.1583L86.5379 123.942L74.7302 127.213" fill="#E44D26"/>
<path d="M74.754 124.712V96.9595H86.5299L84.2827 122.052" fill="#F16529"/>
<path d="M65.7018 100.557H74.754V104.162H69.6562L69.9897 107.854H74.754V111.451H66.6864L65.7018 100.557ZM66.8452 113.262H70.4661L70.7202 116.144L74.754 117.224V120.988L67.3534 118.923" fill="#EBEBEB"/>
<path d="M83.7745 100.557H74.7382V104.162H83.441L83.7745 100.557ZM83.1155 107.854H74.7382V111.459H79.1849L78.764 116.144L74.7382 117.224V120.972L82.1229 118.923" fill="white"/>
</g>
<circle cx="125.246" cy="169.836" r="15.082" fill="#814BF6" fill-opacity="0.05"/>
<circle cx="125.246" cy="169.836" r="14.582" stroke="#814BF6" stroke-opacity="0.1"/>
<ellipse cx="143.607" cy="53.1148" rx="13.1148" ry="13.1148" fill="#814BF6" fill-opacity="0.05"/>
<path d="M156.221 53.1148C156.221 60.0817 150.574 65.7295 143.607 65.7295C136.64 65.7295 130.992 60.0817 130.992 53.1148C130.992 46.1478 136.64 40.5 143.607 40.5C150.574 40.5 156.221 46.1478 156.221 53.1148Z" stroke="#814BF6" stroke-opacity="0.1"/>
<circle cx="213.771" cy="106.229" r="13.1148" fill="#814BF6" fill-opacity="0.05"/>
<circle cx="213.771" cy="106.229" r="12.6148" stroke="#814BF6" stroke-opacity="0.1"/>
<ellipse cx="231.475" cy="230.164" rx="9.18034" ry="9.18032" fill="#814BF6" fill-opacity="0.05"/>
<path d="M240.156 230.164C240.156 234.958 236.269 238.844 231.475 238.844C226.681 238.844 222.795 234.958 222.795 230.164C222.795 225.37 226.681 221.484 231.475 221.484C236.269 221.484 240.156 225.37 240.156 230.164Z" stroke="#814BF6" stroke-opacity="0.1"/>
<ellipse cx="163.279" cy="217.705" rx="6.55737" ry="6.55738" fill="#814BF6" fill-opacity="0.05"/>
<path d="M169.336 217.705C169.336 221.05 166.624 223.762 163.279 223.762C159.933 223.762 157.221 221.05 157.221 217.705C157.221 214.359 159.933 211.647 163.279 211.647C166.624 211.647 169.336 214.359 169.336 217.705Z" stroke="#814BF6" stroke-opacity="0.1"/>
<ellipse cx="254.426" cy="129.18" rx="6.55738" ry="6.55737" fill="#814BF6" fill-opacity="0.05"/>
<path d="M260.484 129.18C260.484 132.526 257.772 135.238 254.426 135.238C251.081 135.238 248.369 132.526 248.369 129.18C248.369 125.835 251.081 123.123 254.426 123.123C257.772 123.123 260.484 125.835 260.484 129.18Z" stroke="#814BF6" stroke-opacity="0.1"/>
<circle cx="80" cy="172.459" r="6.55737" fill="#814BF6" fill-opacity="0.05"/>
<circle cx="80" cy="172.459" r="6.05737" stroke="#814BF6" stroke-opacity="0.1"/>
<ellipse cx="333.771" cy="184.918" rx="6.55736" ry="6.55737" fill="#814BF6" fill-opacity="0.05"/>
<path d="M339.828 184.918C339.828 188.263 337.116 190.975 333.77 190.975C330.425 190.975 327.713 188.263 327.713 184.918C327.713 181.573 330.425 178.861 333.77 178.861C337.116 178.861 339.828 181.573 339.828 184.918Z" stroke="#814BF6" stroke-opacity="0.1"/>
<circle cx="190.492" cy="275.738" r="23.2787" fill="#814BF6" fill-opacity="0.05"/>
<circle cx="190.492" cy="275.738" r="22.7787" stroke="#814BF6" stroke-opacity="0.1"/>
<circle cx="277.049" cy="187.213" r="22.623" fill="#814BF6" fill-opacity="0.05"/>
<circle cx="277.049" cy="187.213" r="22.123" stroke="#814BF6" stroke-opacity="0.1"/>
<ellipse cx="156.393" cy="119.672" rx="22.623" ry="22.623" fill="#814BF6" fill-opacity="0.05"/>
<path d="M178.516 119.672C178.516 131.89 168.612 141.795 156.393 141.795C144.175 141.795 134.271 131.89 134.271 119.672C134.271 107.454 144.175 97.5491 156.393 97.5491C168.612 97.5491 178.516 107.454 178.516 119.672Z" stroke="#814BF6" stroke-opacity="0.1"/>
<circle cx="299.672" cy="283.279" r="41.3115" fill="#814BF6" fill-opacity="0.05"/>
<circle cx="299.672" cy="283.279" r="40.8115" stroke="#814BF6" stroke-opacity="0.1"/>
<g clip-path="url(#clip1)">
<path d="M315.798 269.349L312.836 302.538L299.519 306.23L286.238 302.543L283.279 269.349H315.798Z" fill="#264DE4"/>
<path d="M310.3 300.424L312.831 272.063H299.539V303.408L310.3 300.424Z" fill="#2965F1"/>
<path d="M290.063 284.374L290.428 288.445H299.538V284.374H290.063Z" fill="#EBEBEB"/>
<path d="M299.538 276.134H299.524H289.33L289.7 280.205H299.538V276.134Z" fill="#EBEBEB"/>
<path d="M299.538 299.183V294.947L299.521 294.952L294.987 293.728L294.697 290.481H292.494H290.61L291.18 296.873L299.52 299.188L299.538 299.183Z" fill="#EBEBEB"/>
<path d="M290.932 260.328H295.863V262.39H292.994V264.452H295.863V266.514H290.932V260.328Z" fill="white"/>
<path d="M296.849 260.328H301.78V262.121H298.911V262.48H301.78V266.603H296.849V264.721H299.718V264.362H296.849V260.328Z" fill="white"/>
<path d="M302.766 260.328H307.697V262.121H304.828V262.48H307.697V266.603H302.766V264.721H305.635V264.362H302.766V260.328Z" fill="white"/>
<path d="M304.538 288.445L304.065 293.725L299.525 294.95V299.186L307.871 296.873L307.932 296.185L308.889 285.467L308.988 284.374L309.723 276.134H299.525V280.205H305.261L304.891 284.374H299.525V288.445H304.538Z" fill="white"/>
</g>
<ellipse cx="83.2786" cy="255.738" rx="44.5902" ry="44.5902" fill="#814BF6" fill-opacity="0.05"/>
<path d="M127.369 255.738C127.369 280.088 107.629 299.828 83.2786 299.828C58.9283 299.828 39.1885 280.088 39.1885 255.738C39.1885 231.387 58.9283 211.647 83.2786 211.647C107.629 211.647 127.369 231.387 127.369 255.738Z" stroke="#814BF6" stroke-opacity="0.1"/>
<g clip-path="url(#clip2)">
<path d="M83.2364 235.41C72.5268 235.41 73.1955 240.054 73.1955 240.054L73.2075 244.866H83.4274V246.31H69.1481C69.1481 246.31 62.295 245.533 62.295 256.339C62.295 267.145 68.2766 266.762 68.2766 266.762H71.8464V261.748C71.8464 261.748 71.654 255.766 77.7324 255.766C83.8109 255.766 87.8688 255.766 87.8688 255.766C87.8688 255.766 93.5638 255.858 93.5638 250.262C93.5638 244.666 93.5638 241.009 93.5638 241.009C93.5638 241.009 94.4285 235.41 83.2364 235.41ZM77.6011 238.645C78.6179 238.645 79.4397 239.467 79.4397 240.484C79.4397 241.501 78.6179 242.322 77.6011 242.322C76.5843 242.322 75.7625 241.501 75.7625 240.484C75.7625 239.467 76.5843 238.645 77.6011 238.645Z" fill="url(#paint0_linear)"/>
<path d="M83.5404 277.377C94.2501 277.377 93.5813 272.733 93.5813 272.733L93.5693 267.921H83.3494V266.476H97.6287C97.6287 266.476 104.482 267.254 104.482 256.448C104.482 245.641 98.5002 246.025 98.5002 246.025H94.9304V251.039C94.9304 251.039 95.1228 257.021 89.0444 257.021C82.9659 257.021 78.908 257.021 78.908 257.021C78.908 257.021 73.213 256.929 73.213 262.525C73.213 268.121 73.213 271.777 73.213 271.777C73.213 271.777 72.3483 277.377 83.5404 277.377ZM89.1757 274.141C88.1589 274.141 87.3371 273.32 87.3371 272.303C87.3371 271.286 88.1589 270.464 89.1757 270.464C90.1925 270.464 91.0144 271.286 91.0144 272.303C91.0144 273.32 90.1925 274.141 89.1757 274.141Z" fill="url(#paint1_linear)"/>
</g>
<ellipse cx="316.066" cy="108.852" rx="37.377" ry="37.377" fill="#814BF6" fill-opacity="0.05"/>
<path d="M352.943 108.852C352.943 129.219 336.432 145.729 316.066 145.729C295.699 145.729 279.189 129.219 279.189 108.852C279.189 88.4858 295.699 71.9753 316.066 71.9753C336.432 71.9753 352.943 88.4858 352.943 108.852Z" stroke="#814BF6" stroke-opacity="0.1"/>
<path d="M315.771 129.239C315.21 129.239 314.687 129.09 314.2 128.828L309.226 125.873C308.477 125.461 308.851 125.312 309.076 125.237C310.086 124.9 310.273 124.825 311.32 124.227C311.432 124.152 311.582 124.19 311.694 124.264L315.509 126.546C315.659 126.621 315.846 126.621 315.958 126.546L330.883 117.906C331.032 117.831 331.107 117.681 331.107 117.494V100.251C331.107 100.064 331.032 99.9141 330.883 99.8393L315.958 91.2362C315.809 91.1614 315.622 91.1614 315.509 91.2362L300.585 99.8393C300.435 99.9141 300.361 100.101 300.361 100.251V117.494C300.361 117.644 300.435 117.831 300.585 117.906L304.662 120.262C306.869 121.384 308.253 120.075 308.253 118.766V101.747C308.253 101.522 308.44 101.298 308.702 101.298H310.609C310.834 101.298 311.058 101.485 311.058 101.747V118.766C311.058 121.721 309.45 123.441 306.645 123.441C305.784 123.441 305.111 123.441 303.203 122.506L299.276 120.262C298.303 119.701 297.705 118.654 297.705 117.532V100.288C297.705 99.166 298.303 98.1187 299.276 97.5576L314.2 88.9172C315.135 88.3935 316.407 88.3935 317.342 88.9172L332.267 97.5576C333.239 98.1187 333.838 99.166 333.838 100.288V117.532C333.838 118.654 333.239 119.701 332.267 120.262L317.342 128.903C316.893 129.09 316.332 129.239 315.771 129.239Z" fill="#6DCD67"/>
<path d="M320.409 117.382C313.864 117.382 312.517 114.39 312.517 111.846C312.517 111.622 312.704 111.397 312.966 111.397H314.911C315.135 111.397 315.322 111.547 315.322 111.771C315.622 113.754 316.482 114.726 320.447 114.726C323.589 114.726 324.935 114.016 324.935 112.332C324.935 111.36 324.561 110.649 319.661 110.163C315.584 109.751 313.041 108.854 313.041 105.6C313.041 102.57 315.584 100.774 319.848 100.774C324.636 100.774 326.992 102.42 327.292 106.011C327.292 106.123 327.254 106.235 327.18 106.348C327.105 106.422 326.992 106.497 326.88 106.497H324.898C324.711 106.497 324.524 106.348 324.486 106.161C324.038 104.103 322.878 103.43 319.811 103.43C316.37 103.43 315.958 104.627 315.958 105.525C315.958 106.61 316.444 106.946 321.083 107.545C325.683 108.143 327.853 109.003 327.853 112.22C327.853 115.512 325.122 117.382 320.409 117.382Z" fill="#6DCD67"/>
<defs>
<filter id="filter0_f" x="37.353" y="36.802" width="270.653" height="258.075" filterUnits="userSpaceOnUse" color-interpolation-filters="sRGB">
<feFlood flood-opacity="0" result="BackgroundImageFix"/>
<feBlend mode="normal" in="SourceGraphic" in2="BackgroundImageFix" result="shape"/>
<feGaussianBlur stdDeviation="42" result="effect1_foregroundBlur"/>
</filter>
<filter id="filter1_f" x="81.2878" y="62.376" width="270.653" height="258.075" filterUnits="userSpaceOnUse" color-interpolation-filters="sRGB">
<feFlood flood-opacity="0" result="BackgroundImageFix"/>
<feBlend mode="normal" in="SourceGraphic" in2="BackgroundImageFix" result="shape"/>
<feGaussianBlur stdDeviation="42" result="effect1_foregroundBlur"/>
</filter>
<filter id="filter2_f" x="81.2887" y="38.3596" width="271.706" height="256.866" filterUnits="userSpaceOnUse" color-interpolation-filters="sRGB">
<feFlood flood-opacity="0" result="BackgroundImageFix"/>
<feBlend mode="normal" in="SourceGraphic" in2="BackgroundImageFix" result="shape"/>
<feGaussianBlur stdDeviation="42" result="effect1_foregroundBlur"/>
</filter>
<filter id="filter3_f" x="36.2987" y="62.0273" width="271.706" height="256.866" filterUnits="userSpaceOnUse" color-interpolation-filters="sRGB">
<feFlood flood-opacity="0" result="BackgroundImageFix"/>
<feBlend mode="normal" in="SourceGraphic" in2="BackgroundImageFix" result="shape"/>
<feGaussianBlur stdDeviation="42" result="effect1_foregroundBlur"/>
</filter>
<filter id="filter4_f" x="82.5572" y="15.6721" width="223.738" height="321.443" filterUnits="userSpaceOnUse" color-interpolation-filters="sRGB">
<feFlood flood-opacity="0" result="BackgroundImageFix"/>
<feBlend mode="normal" in="SourceGraphic" in2="BackgroundImageFix" result="shape"/>
<feGaussianBlur stdDeviation="42" result="effect1_foregroundBlur"/>
</filter>
<filter id="filter5_f" x="122.623" y="106.229" width="146.885" height="146.885" filterUnits="userSpaceOnUse" color-interpolation-filters="sRGB">
<feFlood flood-opacity="0" result="BackgroundImageFix"/>
<feBlend mode="normal" in="SourceGraphic" in2="BackgroundImageFix" result="shape"/>
<feGaussianBlur stdDeviation="18" result="effect1_foregroundBlur"/>
</filter>
<filter id="filter6_f" x="161.41" y="145.016" width="69.3115" height="69.3115" filterUnits="userSpaceOnUse" color-interpolation-filters="sRGB">
<feFlood flood-opacity="0" result="BackgroundImageFix"/>
<feBlend mode="normal" in="SourceGraphic" in2="BackgroundImageFix" result="shape"/>
<feGaussianBlur stdDeviation="5" result="effect1_foregroundBlur"/>
</filter>
<linearGradient id="paint0_linear" x1="66.3493" y1="239.078" x2="87.2095" y2="260.008" gradientUnits="userSpaceOnUse">
<stop stop-color="#387EB8"/>
<stop offset="1" stop-color="#366994"/>
</linearGradient>
<linearGradient id="paint1_linear" x1="79.1814" y1="252.393" x2="101.585" y2="273.857" gradientUnits="userSpaceOnUse">
<stop stop-color="#FFE052"/>
<stop offset="1" stop-color="#FFC331"/>
</linearGradient>
<clipPath id="clip0">
<rect width="40.6557" height="40.6557" fill="white" transform="translate(54.4261 86.5574)"/>
</clipPath>
<clipPath id="clip1">
<rect width="32.5197" height="45.9016" fill="white" transform="translate(283.279 260.328)"/>
</clipPath>
<clipPath id="clip2">
<rect width="42.1869" height="41.9672" fill="white" transform="translate(62.295 235.41)"/>
</clipPath>
</defs>
</svg>
