<svg width="65" height="32" viewBox="0 0 65 32" fill="none" xmlns="http://www.w3.org/2000/svg">
<g clip-path="url(#clip0)">
<path fill-rule="evenodd" clip-rule="evenodd" d="M32.7584 31.8955H0.276154V0.0566101H64.6112L32.7584 31.8955ZM32.1289 6.0394L38.4239 6.04066C44.593 6.04066 47.3628 8.19985 47.3628 12.9035C47.3628 17.1287 44.4671 19.648 39.557 19.648H37.4167V25.7277H28.1001L27.0929 22.8206C26.0857 23.1404 25.0785 23.3305 23.8195 23.3305C22.5605 23.3305 21.4274 23.1341 20.4202 22.7967L19.5389 25.7277H13.7475L14.377 24.0368C14.3128 24.0689 14.2813 24.1011 14.2492 24.1338C14.2183 24.1653 14.1869 24.1974 14.1252 24.2307C12.7403 25.3865 10.8518 26.0223 8.71145 26.0626L8.33376 26.0651C5.81575 26.0651 3.29774 25.3575 1.15744 24.1539L3.17185 20.2699C5.31215 21.5201 6.57115 21.8009 8.33376 21.7681C9.34096 21.7467 9.97046 21.5755 10.4741 21.1235C10.7259 20.8503 10.8518 20.5104 10.8518 20.1365C10.8518 19.1242 9.46686 18.6521 7.70426 18.1069C6.19345 17.665 4.68265 17.062 3.29774 16.1366C1.91284 15.0375 1.15744 13.6576 1.15744 11.7125C1.15744 10.2986 1.78694 9.02324 2.66824 8.01855C4.05315 6.57448 6.31935 5.70325 9.08916 5.70325C11.3554 5.70576 14.1252 6.3617 16.2655 7.39912L13.9993 11.2353C11.7331 10.1551 10.6 10.0506 9.34096 9.98637C7.45246 9.88565 6.57115 10.5605 6.57115 11.2957C6.44525 12.1821 8.33376 12.9929 9.97046 13.5443C12.6144 14.3652 15.8878 15.4618 16.3914 18.6345L21.1756 6.0394H26.5893L32.1289 21.0996V6.0394ZM21.8051 18.574C22.4346 18.8032 23.0641 18.9341 23.8195 18.9341C24.5749 18.9341 25.2044 18.8107 25.8339 18.5942L23.8195 12.2387L21.8051 18.574ZM37.4167 15.2905H38.8016C40.6901 15.2905 42.2009 14.6749 42.2009 12.7109C42.2009 10.8009 40.6901 10.1828 38.8016 10.1828H37.4167V15.2905Z" fill="#fff"/>
<path d="M40.6901 29.861C40.6901 28.8878 41.4455 28.1462 42.3268 28.1462C43.2081 28.1462 43.9635 28.8878 43.9635 29.861C43.9635 30.8707 43.2081 31.5984 42.3268 31.5984C41.4455 31.5984 40.6901 30.8707 40.6901 29.861ZM42.3268 31.9434C43.4599 31.9434 44.4671 31.0608 44.4671 29.861C44.4671 28.6788 43.4599 27.8101 42.3268 27.8101C41.1937 27.8101 40.1865 28.6788 40.1865 29.861C40.1865 31.0608 41.1937 31.9434 42.3268 31.9434ZM41.9491 30.0335H42.3268L42.9563 31.0608H43.334L42.7045 30.0133C42.9563 29.9705 43.334 29.7854 43.334 29.3624C43.334 28.8878 42.9563 28.6788 42.4527 28.6788H41.5714V31.0608H41.9491V30.0335ZM41.9491 29.7263V28.9822H42.4527C42.5786 28.9822 42.9563 29.0401 42.9563 29.341C42.9563 29.7023 42.5786 29.7263 42.3268 29.7263H41.9491Z" fill="#fff"/>
</g>
<defs>
<clipPath id="clip0">
<rect width="64" height="32" fill="white" transform="translate(0.443665)"/>
</clipPath>
</defs>
</svg>
