<svg width="702" height="670" viewBox="0 0 702 670" fill="none" xmlns="http://www.w3.org/2000/svg">
<circle cx="189.902" cy="281.901" r="20.9016" fill="#814BF6" fill-opacity="0.05"/>
<circle cx="189.902" cy="281.901" r="20.4016" stroke="#814BF6" stroke-opacity="0.3"/>
<circle cx="20.9016" cy="574.901" r="20.9016" fill="#814BF6" fill-opacity="0.05"/>
<circle cx="20.9016" cy="574.901" r="20.4016" stroke="#814BF6" stroke-opacity="0.3"/>
<circle cx="343.902" cy="562.901" r="20.9016" fill="#814BF6" fill-opacity="0.05"/>
<circle cx="343.902" cy="562.901" r="20.4016" stroke="#814BF6" stroke-opacity="0.3"/>
<circle cx="629.902" cy="360.901" r="20.9016" fill="#814BF6" fill-opacity="0.05"/>
<circle cx="629.902" cy="360.901" r="20.4016" stroke="#814BF6" stroke-opacity="0.3"/>
<circle cx="680.902" cy="220.901" r="20.9016" fill="#814BF6" fill-opacity="0.05"/>
<circle cx="680.902" cy="220.901" r="20.4016" stroke="#814BF6" stroke-opacity="0.3"/>
<circle cx="414.902" cy="167.901" r="20.9016" fill="#814BF6" fill-opacity="0.05"/>
<circle cx="414.902" cy="167.901" r="20.4016" stroke="#814BF6" stroke-opacity="0.3"/>
<circle cx="41.9016" cy="260.901" r="20.9016" fill="#814BF6" fill-opacity="0.05"/>
<circle cx="41.9016" cy="260.901" r="20.4016" stroke="#814BF6" stroke-opacity="0.3"/>
<circle cx="21" cy="167.999" r="8" fill="#814BF6" fill-opacity="0.05"/>
<circle cx="21" cy="167.999" r="7.5" stroke="#814BF6" stroke-opacity="0.3"/>
<circle cx="95" cy="519" r="8" fill="#814BF6" fill-opacity="0.05"/>
<circle cx="95" cy="519" r="7.5" stroke="#814BF6" stroke-opacity="0.3"/>
<circle cx="247" cy="461.999" r="8" fill="#001AFF"/>
<circle cx="630" cy="482" r="8" fill="#814BF6" fill-opacity="0.05"/>
<circle cx="630" cy="482" r="7.5" stroke="#814BF6" stroke-opacity="0.3"/>
<circle cx="456" cy="513" r="14" fill="#00BCFF"/>
<circle cx="290.5" cy="152.5" r="13.5" fill="#1FB881"/>
<circle cx="360" cy="8" r="8" fill="#814BF6" fill-opacity="0.05"/>
<circle cx="360" cy="8" r="7.5" stroke="#814BF6" stroke-opacity="0.3"/>
<circle cx="407" cy="662" r="8" fill="#814BF6" fill-opacity="0.05"/>
<circle cx="407" cy="662" r="7.5" stroke="#814BF6" stroke-opacity="0.3"/>
<circle cx="95" cy="398.999" r="8" fill="#FF980E"/>
<circle cx="498" cy="229" r="8" fill="#814BF6"/>
<circle cx="526" cy="268.999" r="8" fill="#814BF6" fill-opacity="0.05"/>
<circle cx="526" cy="268.999" r="7.5" stroke="#814BF6" stroke-opacity="0.3"/>
<circle cx="604" cy="207.999" r="8" fill="#814BF6" fill-opacity="0.05"/>
<circle cx="604" cy="207.999" r="7.5" stroke="#814BF6" stroke-opacity="0.3"/>
<circle cx="669.902" cy="574.901" r="20.9016" fill="#814BF6" fill-opacity="0.05"/>
<circle cx="669.902" cy="574.901" r="20.4016" stroke="#814BF6" stroke-opacity="0.3"/>
</svg>
