<svg width="35" height="32" viewBox="0 0 35 32" fill="none" xmlns="http://www.w3.org/2000/svg">
<path d="M11.886 27.7287C22.7591 27.7287 28.7048 18.7209 28.7048 10.91C28.7048 10.6541 28.6995 10.3994 28.6881 10.1459C29.8423 9.31146 30.8455 8.27019 31.6367 7.08486C30.5776 7.55565 29.4377 7.87258 28.2421 8.01549C29.4625 7.28366 30.3995 6.126 30.8415 4.7459C29.6994 5.42298 28.4345 5.91509 27.0878 6.18074C26.0091 5.03171 24.4734 4.31314 22.7729 4.31314C19.5085 4.31314 16.8613 6.9604 16.8613 10.2237C16.8613 10.6875 16.9131 11.1387 17.0146 11.5715C12.1015 11.3243 7.74515 8.97205 4.82994 5.39532C4.32227 6.2689 4.02955 7.28366 4.02955 8.36642C4.02955 10.4173 5.07312 12.2278 6.66009 13.2869C5.69028 13.257 4.77924 12.9908 3.98288 12.5476C3.98198 12.5724 3.98197 12.5966 3.98197 12.6231C3.98197 15.4859 6.01957 17.8761 8.72445 18.4178C8.22773 18.5532 7.70508 18.6258 7.16572 18.6258C6.7854 18.6258 6.41487 18.5884 6.05472 18.5192C6.80729 20.868 8.98951 22.5771 11.5768 22.6249C9.55365 24.2107 7.00494 25.1552 4.23495 25.1552C3.7584 25.1552 3.28761 25.1281 2.82489 25.0734C5.44103 26.7502 8.54753 27.7287 11.8863 27.7287" fill="#fff"/>
</svg>
